<svg width="1046" height="546" viewBox="0 0 1046 546" fill="none" xmlns="http://www.w3.org/2000/svg">
<path d="M3.90391 96.9762C15.6492 51.7628 53.9175 18.3777 100.306 12.8749L208.843 0H514.43H832.078L890.024 6.65717C968.78 15.7051 1031.62 76.5632 1043.18 154.989L1043.82 159.306C1045.06 167.757 1045.69 176.288 1045.69 184.831V356L1044.04 380.467C1038.09 468.693 967.266 538.622 878.971 543.441L832.078 546L529.005 528H263.628L132.955 537.79C70.484 542.471 14.4085 499.625 2.50879 438.119C1.0136 430.391 0.260864 422.537 0.260864 414.666V280.5V125.489C0.260864 115.869 1.48505 106.288 3.90391 96.9762Z" fill="white"/>
</svg>
