<svg width="1156" height="640" viewBox="0 0 1156 640" fill="none" xmlns="http://www.w3.org/2000/svg">
<rect width="1156" height="640" fill="#FFC700"/>
<path d="M53.9039 137.976C65.6492 92.7628 103.917 59.3777 150.306 53.8749L258.843 41H564.43H882.078L940.024 47.6572C1018.78 56.7051 1081.62 117.563 1093.18 195.989L1093.82 200.306C1095.06 208.757 1095.69 217.288 1095.69 225.831V397L1094.04 421.467C1088.09 509.693 1017.27 579.622 928.971 584.441L882.078 587L579.005 569H313.628L182.955 578.79C120.484 583.471 64.4085 540.625 52.5088 479.119V479.119C51.0136 471.391 50.2609 463.537 50.2609 455.666V321.5V166.489C50.2609 156.869 51.485 147.288 53.9039 137.976V137.976Z" fill="white"/>
</svg>
